<svg width="128" height="128" viewBox="0 0 128 128" fill="none" xmlns="http://www.w3.org/2000/svg">
<path d="M116.35 119.865H47.6045C41.1326 119.865 35.9551 114.687 35.9551 108.215V23.6494C35.9551 17.1775 41.1326 12 47.6045 12H116.35C122.822 12 128 17.1775 128 23.6494V108.215C127.856 114.544 122.678 119.865 116.35 119.865Z" fill="url(#paint0_linear_129_4963)"/>
<path d="M47.4607 12H79.1009V70.966H35.9551V23.5056C35.9551 17.1775 41.1326 12 47.4607 12Z" fill="url(#paint1_linear_129_4963)"/>
<path d="M77.6629 63.7705H1.4382C0.57528 63.7705 0 63.0515 0 62.3325V30.6921C0 29.8292 0.719099 29.2539 1.4382 29.2539H77.6629C78.5257 29.2539 79.1009 29.973 79.1009 30.6921V62.3325C79.1009 63.0515 78.3819 63.7705 77.6629 63.7705Z" fill="url(#paint2_linear_129_4963)"/>
<path d="M4.31348 33.5781H74.7854V59.4655H4.31348V33.5781Z" fill="white"/>
<path d="M113.616 42.197H88.8786C88.1591 42.197 87.4401 41.6217 87.4401 40.7588V32.1296C87.4401 31.4105 88.0153 30.6914 88.8786 30.6914H113.616C114.335 30.6914 115.054 31.2667 115.054 32.1296V40.7588C115.054 41.6217 114.478 42.197 113.616 42.197ZM115.054 60.8937V52.2643C115.054 51.5453 114.478 50.8263 113.616 50.8263H88.8786C88.1591 50.8263 87.4401 51.4015 87.4401 52.2643V60.8937C87.4401 61.6127 88.0153 62.3317 88.8786 62.3317H113.616C114.478 62.3317 115.054 61.7565 115.054 60.8937ZM115.054 81.0286V72.3991C115.054 71.6801 114.478 70.9611 113.616 70.9611H50.3345C49.6155 70.9611 48.8965 71.5363 48.8965 72.3991V81.0286C48.8965 81.7476 49.4717 82.4666 50.3345 82.4666H113.616C114.478 82.4666 115.054 81.8914 115.054 81.0286ZM115.054 101.163V92.534C115.054 91.815 114.478 91.0955 113.616 91.0955H50.3345C49.6155 91.0955 48.8965 91.6712 48.8965 92.534V101.163C48.8965 101.882 49.4717 102.601 50.3345 102.601H113.616C114.478 102.601 115.054 102.026 115.054 101.163Z" fill="url(#paint3_linear_129_4963)"/>
<path d="M113.615 30.6921C114.334 30.6921 115.053 31.2674 115.053 32.1303V40.7595C115.053 41.4786 114.478 42.1977 113.615 42.1977H88.878C88.159 42.1977 87.44 41.6224 87.44 40.7595V32.1303C87.44 31.4112 88.0152 30.6921 88.878 30.6921H113.615ZM113.615 50.8271C114.334 50.8271 115.053 51.4023 115.053 52.2651V60.8941C115.053 61.6135 114.478 62.3325 113.615 62.3325H88.878C88.159 62.3325 87.44 61.7573 87.44 60.8941V52.2651C87.44 51.5461 88.0152 50.8271 88.878 50.8271H113.615ZM113.615 70.9615C114.334 70.9615 115.053 71.5372 115.053 72.4V81.0289C115.053 81.7479 114.478 82.4674 113.615 82.4674H50.3344C49.6154 82.4674 48.8962 81.8922 48.8962 81.0289V72.4C48.8962 71.681 49.4716 70.9615 50.3344 70.9615H113.615ZM113.615 91.0963C114.334 91.0963 115.053 91.6715 115.053 92.5348V101.164C115.053 101.883 114.478 102.602 113.615 102.602H50.3344C49.6154 102.602 48.8962 102.027 48.8962 101.164V92.5348C48.8962 91.8153 49.4716 91.0963 50.3344 91.0963H113.615ZM113.615 29.2539H88.878C87.2962 29.2539 86.0015 30.5483 86.0015 32.1303V40.7595C86.0015 42.3416 87.2962 43.6359 88.878 43.6359H113.615C115.197 43.6359 116.491 42.3416 116.491 40.7595V32.1303C116.491 30.5483 115.197 29.2539 113.615 29.2539ZM113.615 49.3887H88.878C87.2962 49.3887 86.0015 50.6828 86.0015 52.2651V60.8941C86.0015 62.4763 87.2962 63.7705 88.878 63.7705H113.615C115.197 63.7705 116.491 62.4763 116.491 60.8941V52.2651C116.491 50.6828 115.197 49.3887 113.615 49.3887ZM113.615 69.5235H50.3344C48.7524 69.5235 47.458 70.8177 47.458 72.4V81.0289C47.458 82.6112 48.7524 83.9054 50.3344 83.9054H113.615C115.197 83.9054 116.491 82.6112 116.491 81.0289V72.4C116.491 70.8177 115.197 69.5235 113.615 69.5235ZM113.615 89.6583H50.3344C48.7524 89.6583 47.458 90.9525 47.458 92.5348V101.164C47.458 102.746 48.7524 104.04 50.3344 104.04H113.615C115.197 104.04 116.491 102.746 116.491 101.164V92.5348C116.491 90.9525 115.197 89.6583 113.615 89.6583Z" fill="url(#paint4_linear_129_4963)"/>
<path d="M25.1711 26.3791V22.0645C22.2947 22.0645 19.7059 23.3588 17.9801 25.5161C16.2542 23.5026 13.6655 22.0645 10.7891 22.0645V26.3791C13.5216 26.3791 15.8228 28.6802 15.8228 31.4127V61.6148C15.8228 64.3474 13.5216 66.6487 10.7891 66.6487V70.9632C13.6655 70.9632 16.2542 69.669 17.9801 67.5115C19.7059 69.5252 22.2947 70.9632 25.1711 70.9632V66.6487C22.4385 66.6487 20.1373 64.3474 20.1373 61.6148V31.4127C20.1373 28.6802 22.4385 26.3791 25.1711 26.3791Z" fill="url(#paint5_linear_129_4963)"/>
<defs>
<linearGradient id="paint0_linear_129_4963" x1="81.9774" y1="119.865" x2="81.9774" y2="12" gradientUnits="userSpaceOnUse">
<stop stop-color="#7E4FC5"/>
<stop offset="1" stop-color="#BEA1E3"/>
</linearGradient>
<linearGradient id="paint1_linear_129_4963" x1="46.0225" y1="17.0337" x2="79.1009" y2="61.6176" gradientUnits="userSpaceOnUse">
<stop stop-color="#7930D5" stop-opacity="0"/>
<stop offset="1" stop-color="#BEA1E3"/>
</linearGradient>
<linearGradient id="paint2_linear_129_4963" x1="0" y1="46.5122" x2="79.1009" y2="46.5122" gradientUnits="userSpaceOnUse">
<stop stop-color="#48A5FA"/>
<stop offset="1" stop-color="#AE43F0"/>
</linearGradient>
<linearGradient id="paint3_linear_129_4963" x1="81.9753" y1="102.601" x2="81.9753" y2="30.6914" gradientUnits="userSpaceOnUse">
<stop stop-color="#C1D6FF"/>
<stop offset="1" stop-color="#F2F9FF"/>
</linearGradient>
<linearGradient id="paint4_linear_129_4963" x1="81.9746" y1="104.01" x2="81.9746" y2="24.2202" gradientUnits="userSpaceOnUse">
<stop stop-color="#096BFE" stop-opacity="0.4"/>
<stop offset="1" stop-color="#D0EBFF"/>
</linearGradient>
<linearGradient id="paint5_linear_129_4963" x1="17.9801" y1="70.9632" x2="17.9801" y2="22.0645" gradientUnits="userSpaceOnUse">
<stop stop-color="#3673E5"/>
<stop offset="1" stop-color="#174EB5"/>
</linearGradient>
</defs>
</svg>
