<svg width="256" height="256" viewBox="0 0 256 256" fill="none" xmlns="http://www.w3.org/2000/svg">
<path opacity="0.7" d="M134.563 232.583C201.631 232.583 256 217.469 256 198.825C256 180.181 201.631 165.066 134.563 165.066C67.4958 165.066 13.127 180.181 13.127 198.825C13.127 217.469 67.4958 232.583 134.563 232.583Z" fill="url(#paint0_radial_47_2683)"/>
<path d="M189.656 198.825H77.5975C67.048 198.825 58.6084 190.385 58.6084 179.836V41.9891C58.6084 31.4396 67.048 23 77.5975 23H189.656C200.206 23 208.646 31.4396 208.646 41.9891V179.836C208.411 190.151 199.972 198.825 189.656 198.825Z" fill="url(#paint1_linear_47_2683)"/>
<path d="M77.363 23H128.938V119.118H58.6084V41.7546C58.6084 31.4396 67.048 23 77.363 23Z" fill="url(#paint2_linear_47_2683)"/>
<path d="M126.594 107.397H2.34433C0.937732 107.397 0 106.225 0 105.052V53.4771C0 52.0705 1.17217 51.1328 2.34433 51.1328H126.594C128 51.1328 128.938 52.305 128.938 53.4771V105.052C128.938 106.225 127.766 107.397 126.594 107.397Z" fill="url(#paint3_linear_47_2683)"/>
<path d="M7.0332 58.166H121.905V100.364H7.0332V58.166Z" fill="white"/>
<path d="M185.202 72.2312H144.879C143.707 72.2312 142.535 71.2935 142.535 69.8869V55.8209C142.535 54.6487 143.473 53.4766 144.879 53.4766H185.202C186.374 53.4766 187.546 54.4143 187.546 55.8209V69.8869C187.546 71.2935 186.609 72.2312 185.202 72.2312ZM187.546 102.708V88.6415C187.546 87.4694 186.609 86.2972 185.202 86.2972H144.879C143.707 86.2972 142.535 87.2349 142.535 88.6415V102.708C142.535 103.88 143.473 105.052 144.879 105.052H185.202C186.609 105.052 187.546 104.114 187.546 102.708ZM187.546 135.528V121.462C187.546 120.29 186.609 119.118 185.202 119.118H82.0514C80.8792 119.118 79.707 120.056 79.707 121.462V135.528C79.707 136.7 80.6448 137.872 82.0514 137.872H185.202C186.609 137.872 187.546 136.935 187.546 135.528ZM187.546 168.349V154.283C187.546 153.111 186.609 151.938 185.202 151.938H82.0514C80.8792 151.938 79.707 152.876 79.707 154.283V168.349C79.707 169.521 80.6448 170.693 82.0514 170.693H185.202C186.609 170.693 187.546 169.755 187.546 168.349Z" fill="url(#paint4_linear_47_2683)"/>
<path d="M185.202 53.4771C186.374 53.4771 187.546 54.4149 187.546 55.8215V69.8875C187.546 71.0596 186.608 72.2318 185.202 72.2318H144.879C143.707 72.2318 142.535 71.2941 142.535 69.8875V55.8215C142.535 54.6493 143.472 53.4771 144.879 53.4771H185.202ZM185.202 86.2978C186.374 86.2978 187.546 87.2355 187.546 88.6421V102.708C187.546 103.88 186.608 105.052 185.202 105.052H144.879C143.707 105.052 142.535 104.115 142.535 102.708V88.6421C142.535 87.4699 143.472 86.2978 144.879 86.2978H185.202ZM185.202 119.118C186.374 119.118 187.546 120.056 187.546 121.463V135.529C187.546 136.701 186.608 137.873 185.202 137.873H82.051C80.8788 137.873 79.7066 136.935 79.7066 135.529V121.463C79.7066 120.291 80.6444 119.118 82.051 119.118H185.202ZM185.202 151.939C186.374 151.939 187.546 152.877 187.546 154.283V168.349C187.546 169.522 186.608 170.694 185.202 170.694H82.051C80.8788 170.694 79.7066 169.756 79.7066 168.349V154.283C79.7066 153.111 80.6444 151.939 82.051 151.939H185.202ZM185.202 51.1328H144.879C142.3 51.1328 140.19 53.2427 140.19 55.8215V69.8875C140.19 72.4662 142.3 74.5761 144.879 74.5761H185.202C187.78 74.5761 189.89 72.4662 189.89 69.8875V55.8215C189.89 53.2427 187.78 51.1328 185.202 51.1328ZM185.202 83.9534H144.879C142.3 83.9534 140.19 86.0633 140.19 88.6421V102.708C140.19 105.287 142.3 107.397 144.879 107.397H185.202C187.78 107.397 189.89 105.287 189.89 102.708V88.6421C189.89 86.0633 187.78 83.9534 185.202 83.9534ZM185.202 116.774H82.051C79.4722 116.774 77.3623 118.884 77.3623 121.463V135.529C77.3623 138.107 79.4722 140.217 82.051 140.217H185.202C187.78 140.217 189.89 138.107 189.89 135.529V121.463C189.89 118.884 187.78 116.774 185.202 116.774ZM185.202 149.595H82.051C79.4722 149.595 77.3623 151.705 77.3623 154.283V168.349C77.3623 170.928 79.4722 173.038 82.051 173.038H185.202C187.78 173.038 189.89 170.928 189.89 168.349V154.283C189.89 151.705 187.78 149.595 185.202 149.595Z" fill="url(#paint5_linear_47_2683)"/>
<path d="M41.0263 46.4431V39.4102C36.3377 39.4102 32.1179 41.5201 29.3047 45.0365C26.4915 41.7545 22.2717 39.4102 17.583 39.4102V46.4431C22.0372 46.4431 25.7882 50.1941 25.7882 54.6483V103.879C25.7882 108.333 22.0372 112.084 17.583 112.084V119.117C22.2717 119.117 26.4915 117.007 29.3047 113.491C32.1179 116.773 36.3377 119.117 41.0263 119.117V112.084C36.5721 112.084 32.8212 108.333 32.8212 103.879V54.6483C32.8212 50.1941 36.5721 46.4431 41.0263 46.4431Z" fill="url(#paint6_linear_47_2683)"/>
<defs>
<radialGradient id="paint0_radial_47_2683" cx="0" cy="0" r="1" gradientUnits="userSpaceOnUse" gradientTransform="translate(134.564 198.824) scale(115.523 28.6718)">
<stop stop-color="#919FB9" stop-opacity="0.6"/>
<stop offset="0.191" stop-color="#95A3BC" stop-opacity="0.485"/>
<stop offset="0.392" stop-color="#A2AEC4" stop-opacity="0.365"/>
<stop offset="0.597" stop-color="#B7C0D1" stop-opacity="0.242"/>
<stop offset="0.803" stop-color="#D4DAE4" stop-opacity="0.118"/>
<stop offset="1" stop-color="#F7F9FB" stop-opacity="0"/>
</radialGradient>
<linearGradient id="paint1_linear_47_2683" x1="133.627" y1="198.825" x2="133.627" y2="23" gradientUnits="userSpaceOnUse">
<stop stop-color="#7E4FC5"/>
<stop offset="1" stop-color="#BEA1E3"/>
</linearGradient>
<linearGradient id="paint2_linear_47_2683" x1="75.0187" y1="31.2052" x2="128.938" y2="103.879" gradientUnits="userSpaceOnUse">
<stop stop-color="#7930D5" stop-opacity="0"/>
<stop offset="1" stop-color="#BEA1E3"/>
</linearGradient>
<linearGradient id="paint3_linear_47_2683" x1="0" y1="79.2648" x2="128.938" y2="79.2648" gradientUnits="userSpaceOnUse">
<stop stop-color="#48A5FA"/>
<stop offset="1" stop-color="#AE43F0"/>
</linearGradient>
<linearGradient id="paint4_linear_47_2683" x1="133.627" y1="170.693" x2="133.627" y2="53.4766" gradientUnits="userSpaceOnUse">
<stop stop-color="#C1D6FF"/>
<stop offset="1" stop-color="#F2F9FF"/>
</linearGradient>
<linearGradient id="paint5_linear_47_2683" x1="133.626" y1="172.989" x2="133.626" y2="42.9277" gradientUnits="userSpaceOnUse">
<stop stop-color="#096BFE" stop-opacity="0.4"/>
<stop offset="1" stop-color="#D0EBFF"/>
</linearGradient>
<linearGradient id="paint6_linear_47_2683" x1="29.3047" y1="119.117" x2="29.3047" y2="39.4102" gradientUnits="userSpaceOnUse">
<stop stop-color="#3673E5"/>
<stop offset="1" stop-color="#174EB5"/>
</linearGradient>
</defs>
</svg>
