<svg width="512" height="512" viewBox="0 0 512 512" fill="none" xmlns="http://www.w3.org/2000/svg">
<path opacity="0.7" d="M269.169 464.115C402.328 464.115 510.274 434.107 510.274 397.09C510.274 360.073 402.328 330.064 269.169 330.064C136.01 330.064 28.0635 360.073 28.0635 397.09C28.0635 434.107 136.01 464.115 269.169 464.115Z" fill="url(#paint0_radial_47_2686)"/>
<path d="M378.552 397.091H156.065C135.12 397.091 118.363 380.335 118.363 359.389V85.7018C118.363 64.7564 135.12 48 156.065 48H378.552C399.498 48 416.254 64.7564 416.254 85.7018V359.389C415.789 379.869 399.032 397.091 378.552 397.091Z" fill="url(#paint1_linear_47_2686)"/>
<path d="M155.6 48H258V238.836H118.363V85.2364C118.363 64.7564 135.12 48 155.6 48Z" fill="url(#paint2_linear_47_2686)"/>
<path d="M253.345 215.565H6.65455C3.86182 215.565 2 213.237 2 210.91V108.51C2 105.717 4.32727 103.855 6.65455 103.855H253.345C256.138 103.855 258 106.183 258 108.51V210.91C258 213.237 255.673 215.565 253.345 215.565Z" fill="url(#paint3_linear_47_2686)"/>
<path d="M15.9639 117.818H244.037V201.6H15.9639V117.818Z" fill="white"/>
<path d="M369.709 145.746H289.651C287.324 145.746 284.997 143.884 284.997 141.092V113.164C284.997 110.837 286.859 108.51 289.651 108.51H369.709C372.037 108.51 374.364 110.372 374.364 113.164V141.092C374.364 143.884 372.502 145.746 369.709 145.746ZM374.364 206.255V178.328C374.364 176.001 372.502 173.673 369.709 173.673H289.651C287.324 173.673 284.997 175.535 284.997 178.328V206.255C284.997 208.582 286.859 210.91 289.651 210.91H369.709C372.502 210.91 374.364 209.048 374.364 206.255ZM374.364 271.419V243.492C374.364 241.164 372.502 238.837 369.709 238.837H164.909C162.582 238.837 160.255 240.699 160.255 243.492V271.419C160.255 273.746 162.117 276.073 164.909 276.073H369.709C372.502 276.073 374.364 274.212 374.364 271.419ZM374.364 336.583V308.655C374.364 306.328 372.502 304.001 369.709 304.001H164.909C162.582 304.001 160.255 305.863 160.255 308.655V336.583C160.255 338.91 162.117 341.237 164.909 341.237H369.709C372.502 341.237 374.364 339.375 374.364 336.583Z" fill="url(#paint4_linear_47_2686)"/>
<path d="M369.709 108.51C372.036 108.51 374.363 110.372 374.363 113.165V141.092C374.363 143.419 372.501 145.746 369.709 145.746H289.651C287.323 145.746 284.996 143.885 284.996 141.092V113.165C284.996 110.837 286.858 108.51 289.651 108.51H369.709ZM369.709 173.674C372.036 173.674 374.363 175.535 374.363 178.328V206.255C374.363 208.583 372.501 210.91 369.709 210.91H289.651C287.323 210.91 284.996 209.048 284.996 206.255V178.328C284.996 176.001 286.858 173.674 289.651 173.674H369.709ZM369.709 238.837C372.036 238.837 374.363 240.699 374.363 243.492V271.419C374.363 273.746 372.501 276.074 369.709 276.074H164.909C162.581 276.074 160.254 274.212 160.254 271.419V243.492C160.254 241.165 162.116 238.837 164.909 238.837H369.709ZM369.709 304.001C372.036 304.001 374.363 305.863 374.363 308.655V336.583C374.363 338.91 372.501 341.237 369.709 341.237H164.909C162.581 341.237 160.254 339.375 160.254 336.583V308.655C160.254 306.328 162.116 304.001 164.909 304.001H369.709ZM369.709 103.855H289.651C284.531 103.855 280.341 108.045 280.341 113.165V141.092C280.341 146.212 284.531 150.401 289.651 150.401H369.709C374.829 150.401 379.018 146.212 379.018 141.092V113.165C379.018 108.045 374.829 103.855 369.709 103.855ZM369.709 169.019H289.651C284.531 169.019 280.341 173.208 280.341 178.328V206.255C280.341 211.375 284.531 215.565 289.651 215.565H369.709C374.829 215.565 379.018 211.375 379.018 206.255V178.328C379.018 173.208 374.829 169.019 369.709 169.019ZM369.709 234.183H164.909C159.789 234.183 155.6 238.372 155.6 243.492V271.419C155.6 276.539 159.789 280.728 164.909 280.728H369.709C374.829 280.728 379.018 276.539 379.018 271.419V243.492C379.018 238.372 374.829 234.183 369.709 234.183ZM369.709 299.346H164.909C159.789 299.346 155.6 303.535 155.6 308.655V336.583C155.6 341.703 159.789 345.892 164.909 345.892H369.709C374.829 345.892 379.018 341.703 379.018 336.583V308.655C379.018 303.535 374.829 299.346 369.709 299.346Z" fill="url(#paint5_linear_47_2686)"/>
<path d="M83.4546 94.5457V80.582C74.1455 80.582 65.7674 84.7711 60.1819 91.7529C54.5965 85.2366 46.2183 80.582 36.9092 80.582V94.5457C45.7528 94.5457 53.2001 101.993 53.2001 110.837V208.582C53.2001 217.426 45.7528 224.873 36.9092 224.873V238.837C46.2183 238.837 54.5965 234.647 60.1819 227.666C65.7674 234.182 74.1455 238.837 83.4546 238.837V224.873C74.611 224.873 67.1637 217.426 67.1637 208.582V110.837C67.1637 101.993 74.611 94.5457 83.4546 94.5457Z" fill="url(#paint6_linear_47_2686)"/>
<defs>
<radialGradient id="paint0_radial_47_2686" cx="0" cy="0" r="1" gradientUnits="userSpaceOnUse" gradientTransform="translate(269.17 397.087) scale(229.364 56.9263)">
<stop stop-color="#919FB9" stop-opacity="0.6"/>
<stop offset="0.191" stop-color="#95A3BC" stop-opacity="0.485"/>
<stop offset="0.392" stop-color="#A2AEC4" stop-opacity="0.365"/>
<stop offset="0.597" stop-color="#B7C0D1" stop-opacity="0.242"/>
<stop offset="0.803" stop-color="#D4DAE4" stop-opacity="0.118"/>
<stop offset="1" stop-color="#F7F9FB" stop-opacity="0"/>
</radialGradient>
<linearGradient id="paint1_linear_47_2686" x1="267.309" y1="397.091" x2="267.309" y2="48" gradientUnits="userSpaceOnUse">
<stop stop-color="#7E4FC5"/>
<stop offset="1" stop-color="#BEA1E3"/>
</linearGradient>
<linearGradient id="paint2_linear_47_2686" x1="150.945" y1="64.2909" x2="258" y2="208.582" gradientUnits="userSpaceOnUse">
<stop stop-color="#7930D5" stop-opacity="0"/>
<stop offset="1" stop-color="#BEA1E3"/>
</linearGradient>
<linearGradient id="paint3_linear_47_2686" x1="2" y1="159.71" x2="258" y2="159.71" gradientUnits="userSpaceOnUse">
<stop stop-color="#48A5FA"/>
<stop offset="1" stop-color="#AE43F0"/>
</linearGradient>
<linearGradient id="paint4_linear_47_2686" x1="267.309" y1="341.237" x2="267.309" y2="108.51" gradientUnits="userSpaceOnUse">
<stop stop-color="#C1D6FF"/>
<stop offset="1" stop-color="#F2F9FF"/>
</linearGradient>
<linearGradient id="paint5_linear_47_2686" x1="267.309" y1="345.794" x2="267.309" y2="87.5646" gradientUnits="userSpaceOnUse">
<stop stop-color="#096BFE" stop-opacity="0.4"/>
<stop offset="1" stop-color="#D0EBFF"/>
</linearGradient>
<linearGradient id="paint6_linear_47_2686" x1="60.1819" y1="238.837" x2="60.1819" y2="80.582" gradientUnits="userSpaceOnUse">
<stop stop-color="#3673E5"/>
<stop offset="1" stop-color="#174EB5"/>
</linearGradient>
</defs>
</svg>
