<svg width="64" height="64" viewBox="0 0 64 64" fill="none" xmlns="http://www.w3.org/2000/svg">
<path opacity="0.7" d="M33.6404 58.3948C50.4073 58.3948 63.9995 54.6163 63.9995 49.9552C63.9995 45.2942 50.4073 41.5156 33.6404 41.5156C16.8735 41.5156 3.28125 45.2942 3.28125 49.9552C3.28125 54.6163 16.8735 58.3948 33.6404 58.3948Z" fill="url(#paint0_radial_47_2674)"/>
<path d="M47.4144 49.9563H19.3996C16.7622 49.9563 14.6523 47.8464 14.6523 45.209V10.7473C14.6523 8.1099 16.7622 6 19.3996 6H47.4144C50.0518 6 52.1617 8.1099 52.1617 10.7473V45.209C52.1031 47.7878 49.9932 49.9563 47.4144 49.9563Z" fill="url(#paint1_linear_47_2674)"/>
<path d="M19.341 6H32.2349V30.0294H14.6523V10.6887C14.6523 8.1099 16.7622 6 19.341 6Z" fill="url(#paint2_linear_47_2674)"/>
<path d="M31.6485 27.0992H0.586083C0.234433 27.0992 0 26.8062 0 26.5131V13.6193C0 13.2676 0.293042 13.0332 0.586083 13.0332H31.6485C32.0002 13.0332 32.2346 13.3262 32.2346 13.6193V26.5131C32.2346 26.8062 31.9415 27.0992 31.6485 27.0992Z" fill="url(#paint3_linear_47_2674)"/>
<path d="M1.75781 14.793H30.4759V25.3425H1.75781V14.793Z" fill="white"/>
<path d="M46.3005 18.3078H36.2199C35.9268 18.3078 35.6338 18.0734 35.6338 17.7217V14.2052C35.6338 13.9122 35.8682 13.6191 36.2199 13.6191H46.3005C46.5936 13.6191 46.8866 13.8536 46.8866 14.2052V17.7217C46.8866 18.0734 46.6522 18.3078 46.3005 18.3078ZM46.8866 25.9269V22.4104C46.8866 22.1174 46.6522 21.8243 46.3005 21.8243H36.2199C35.9268 21.8243 35.6338 22.0587 35.6338 22.4104V25.9269C35.6338 26.2199 35.8682 26.513 36.2199 26.513H46.3005C46.6522 26.513 46.8866 26.2785 46.8866 25.9269ZM46.8866 34.1321V30.6156C46.8866 30.3225 46.6522 30.0295 46.3005 30.0295H20.5128C20.2198 30.0295 19.9268 30.2639 19.9268 30.6156V34.1321C19.9268 34.4251 20.1612 34.7181 20.5128 34.7181H46.3005C46.6522 34.7181 46.8866 34.4837 46.8866 34.1321ZM46.8866 42.3372V38.8207C46.8866 38.5277 46.6522 38.2347 46.3005 38.2347H20.5128C20.2198 38.2347 19.9268 38.4691 19.9268 38.8207V42.3372C19.9268 42.6303 20.1612 42.9233 20.5128 42.9233H46.3005C46.6522 42.9233 46.8866 42.6889 46.8866 42.3372Z" fill="url(#paint4_linear_47_2674)"/>
<path d="M46.3007 13.6193C46.5937 13.6193 46.8867 13.8537 46.8867 14.2054V17.7219C46.8867 18.0149 46.6523 18.308 46.3007 18.308H36.22C35.927 18.308 35.6339 18.0735 35.6339 17.7219V14.2054C35.6339 13.9123 35.8684 13.6193 36.22 13.6193H46.3007ZM46.3007 21.8245C46.5937 21.8245 46.8867 22.0589 46.8867 22.4105V25.927C46.8867 26.2201 46.6523 26.5131 46.3007 26.5131H36.22C35.927 26.5131 35.6339 26.2787 35.6339 25.927V22.4105C35.6339 22.1175 35.8684 21.8245 36.22 21.8245H46.3007ZM46.3007 30.0296C46.5937 30.0296 46.8867 30.2641 46.8867 30.6157V34.1322C46.8867 34.4253 46.6523 34.7183 46.3007 34.7183H20.513C20.2199 34.7183 19.9269 34.4839 19.9269 34.1322V30.6157C19.9269 30.3227 20.1613 30.0296 20.513 30.0296H46.3007ZM46.3007 38.2348C46.5937 38.2348 46.8867 38.4692 46.8867 38.8209V42.3374C46.8867 42.6304 46.6523 42.9235 46.3007 42.9235H20.513C20.2199 42.9235 19.9269 42.689 19.9269 42.3374V38.8209C19.9269 38.5278 20.1613 38.2348 20.513 38.2348H46.3007ZM46.3007 13.0332H36.22C35.5753 13.0332 35.0479 13.5607 35.0479 14.2054V17.7219C35.0479 18.3666 35.5753 18.894 36.22 18.894H46.3007C46.9454 18.894 47.4728 18.3666 47.4728 17.7219V14.2054C47.4728 13.5607 46.9454 13.0332 46.3007 13.0332ZM46.3007 21.2384H36.22C35.5753 21.2384 35.0479 21.7658 35.0479 22.4105V25.927C35.0479 26.5717 35.5753 27.0992 36.22 27.0992H46.3007C46.9454 27.0992 47.4728 26.5717 47.4728 25.927V22.4105C47.4728 21.7658 46.9454 21.2384 46.3007 21.2384ZM46.3007 29.4435H20.513C19.8683 29.4435 19.3408 29.971 19.3408 30.6157V34.1322C19.3408 34.7769 19.8683 35.3044 20.513 35.3044H46.3007C46.9454 35.3044 47.4728 34.7769 47.4728 34.1322V30.6157C47.4728 29.971 46.9454 29.4435 46.3007 29.4435ZM46.3007 37.6487H20.513C19.8683 37.6487 19.3408 38.1762 19.3408 38.8209V42.3374C19.3408 42.9821 19.8683 43.5095 20.513 43.5095H46.3007C46.9454 43.5095 47.4728 42.9821 47.4728 42.3374V38.8209C47.4728 38.1762 46.9454 37.6487 46.3007 37.6487Z" fill="url(#paint5_linear_47_2674)"/>
<path d="M10.2573 11.8598V10.1016C9.08515 10.1016 8.0302 10.629 7.3269 11.5082C6.6236 10.6876 5.56865 10.1016 4.39648 10.1016V11.8598C5.51004 11.8598 6.44778 12.7975 6.44778 13.9111V26.2189C6.44778 27.3324 5.51004 28.2702 4.39648 28.2702V30.0284C5.56865 30.0284 6.6236 29.5009 7.3269 28.6218C8.0302 29.4423 9.08515 30.0284 10.2573 30.0284V28.2702C9.14376 28.2702 8.20603 27.3324 8.20603 26.2189V13.9111C8.20603 12.7975 9.14376 11.8598 10.2573 11.8598Z" fill="url(#paint6_linear_47_2674)"/>
<defs>
<radialGradient id="paint0_radial_47_2674" cx="0" cy="0" r="1" gradientUnits="userSpaceOnUse" gradientTransform="translate(33.6405 49.9549) scale(28.8807 7.16795)">
<stop stop-color="#919FB9" stop-opacity="0.6"/>
<stop offset="0.191" stop-color="#95A3BC" stop-opacity="0.485"/>
<stop offset="0.392" stop-color="#A2AEC4" stop-opacity="0.365"/>
<stop offset="0.597" stop-color="#B7C0D1" stop-opacity="0.242"/>
<stop offset="0.803" stop-color="#D4DAE4" stop-opacity="0.118"/>
<stop offset="1" stop-color="#F7F9FB" stop-opacity="0"/>
</radialGradient>
<linearGradient id="paint1_linear_47_2674" x1="33.407" y1="49.9563" x2="33.407" y2="6" gradientUnits="userSpaceOnUse">
<stop stop-color="#7E4FC5"/>
<stop offset="1" stop-color="#BEA1E3"/>
</linearGradient>
<linearGradient id="paint2_linear_47_2674" x1="18.7549" y1="8.05129" x2="32.2349" y2="26.2199" gradientUnits="userSpaceOnUse">
<stop stop-color="#7930D5" stop-opacity="0"/>
<stop offset="1" stop-color="#BEA1E3"/>
</linearGradient>
<linearGradient id="paint3_linear_47_2674" x1="0" y1="20.0662" x2="32.2346" y2="20.0662" gradientUnits="userSpaceOnUse">
<stop stop-color="#48A5FA"/>
<stop offset="1" stop-color="#AE43F0"/>
</linearGradient>
<linearGradient id="paint4_linear_47_2674" x1="33.4067" y1="42.9233" x2="33.4067" y2="13.6191" gradientUnits="userSpaceOnUse">
<stop stop-color="#C1D6FF"/>
<stop offset="1" stop-color="#F2F9FF"/>
</linearGradient>
<linearGradient id="paint5_linear_47_2674" x1="33.4068" y1="43.4972" x2="33.4068" y2="10.9819" gradientUnits="userSpaceOnUse">
<stop stop-color="#096BFE" stop-opacity="0.4"/>
<stop offset="1" stop-color="#D0EBFF"/>
</linearGradient>
<linearGradient id="paint6_linear_47_2674" x1="7.3269" y1="30.0284" x2="7.3269" y2="10.1016" gradientUnits="userSpaceOnUse">
<stop stop-color="#3673E5"/>
<stop offset="1" stop-color="#174EB5"/>
</linearGradient>
</defs>
</svg>
