<svg width="128" height="128" viewBox="0 0 128 128" fill="none" xmlns="http://www.w3.org/2000/svg">
<path opacity="0.7" d="M67.2817 116.792C100.815 116.792 128 109.235 128 99.9124C128 90.5903 100.815 83.0332 67.2817 83.0332C33.748 83.0332 6.56348 90.5903 6.56348 99.9124C6.56348 109.235 33.748 116.792 67.2817 116.792Z" fill="url(#paint0_radial_47_2677)"/>
<path d="M94.8279 99.9125H38.7983C33.5235 99.9125 29.3037 95.6927 29.3037 90.418V21.4946C29.3037 16.2198 33.5235 12 38.7983 12H94.8279C100.103 12 104.322 16.2198 104.322 21.4946V90.418C104.205 95.5755 99.9854 99.9125 94.8279 99.9125Z" fill="url(#paint1_linear_47_2677)"/>
<path d="M38.681 12H64.4687V60.0589H29.3037V21.3773C29.3037 16.2198 33.5235 12 38.681 12Z" fill="url(#paint2_linear_47_2677)"/>
<path d="M63.297 54.1984H1.17217C0.468867 54.1984 0 53.6123 0 53.0262V27.2386C0 26.5353 0.586083 26.0664 1.17217 26.0664H63.297C64.0003 26.0664 64.4692 26.6525 64.4692 27.2386V53.0262C64.4692 53.6123 63.8831 54.1984 63.297 54.1984Z" fill="url(#paint3_linear_47_2677)"/>
<path d="M3.5166 29.584H60.9528V50.683H3.5166V29.584Z" fill="white"/>
<path d="M92.601 36.6156H72.4398C71.8537 36.6156 71.2676 36.1468 71.2676 35.4435V28.4104C71.2676 27.8244 71.7365 27.2383 72.4398 27.2383H92.601C93.1871 27.2383 93.7732 27.7071 93.7732 28.4104V35.4435C93.7732 36.1468 93.3043 36.6156 92.601 36.6156ZM93.7732 51.8538V44.8208C93.7732 44.2347 93.3043 43.6486 92.601 43.6486H72.4398C71.8537 43.6486 71.2676 44.1175 71.2676 44.8208V51.8538C71.2676 52.4399 71.7365 53.026 72.4398 53.026H92.601C93.3043 53.026 93.7732 52.5571 93.7732 51.8538ZM93.7732 68.2641V61.2311C93.7732 60.645 93.3043 60.059 92.601 60.059H41.0257C40.4396 60.059 39.8535 60.5278 39.8535 61.2311V68.2641C39.8535 68.8502 40.3224 69.4363 41.0257 69.4363H92.601C93.3043 69.4363 93.7732 68.9674 93.7732 68.2641ZM93.7732 84.6745V77.6415C93.7732 77.0554 93.3043 76.4693 92.601 76.4693H41.0257C40.4396 76.4693 39.8535 76.9382 39.8535 77.6415V84.6745C39.8535 85.2606 40.3224 85.8466 41.0257 85.8466H92.601C93.3043 85.8466 93.7732 85.3778 93.7732 84.6745Z" fill="url(#paint4_linear_47_2677)"/>
<path d="M92.6013 27.2386C93.1874 27.2386 93.7735 27.7074 93.7735 28.4107V35.4437C93.7735 36.0298 93.3046 36.6159 92.6013 36.6159H72.4401C71.854 36.6159 71.2679 36.147 71.2679 35.4437V28.4107C71.2679 27.8247 71.7368 27.2386 72.4401 27.2386H92.6013ZM92.6013 43.6489C93.1874 43.6489 93.7735 44.1178 93.7735 44.8211V51.8541C93.7735 52.4402 93.3046 53.0262 92.6013 53.0262H72.4401C71.854 53.0262 71.2679 52.5574 71.2679 51.8541V44.8211C71.2679 44.235 71.7368 43.6489 72.4401 43.6489H92.6013ZM92.6013 60.0592C93.1874 60.0592 93.7735 60.5281 93.7735 61.2314V68.2644C93.7735 68.8505 93.3046 69.4366 92.6013 69.4366H41.026C40.4399 69.4366 39.8538 68.9677 39.8538 68.2644V61.2314C39.8538 60.6453 40.3227 60.0592 41.026 60.0592H92.6013ZM92.6013 76.4696C93.1874 76.4696 93.7735 76.9385 93.7735 77.6418V84.6748C93.7735 85.2608 93.3046 85.8469 92.6013 85.8469H41.026C40.4399 85.8469 39.8538 85.3781 39.8538 84.6748V77.6418C39.8538 77.0557 40.3227 76.4696 41.026 76.4696H92.6013ZM92.6013 26.0664H72.4401C71.1507 26.0664 70.0957 27.1214 70.0957 28.4107V35.4437C70.0957 36.7331 71.1507 37.7881 72.4401 37.7881H92.6013C93.8907 37.7881 94.9457 36.7331 94.9457 35.4437V28.4107C94.9457 27.1214 93.8907 26.0664 92.6013 26.0664ZM92.6013 42.4767H72.4401C71.1507 42.4767 70.0957 43.5317 70.0957 44.8211V51.8541C70.0957 53.1435 71.1507 54.1984 72.4401 54.1984H92.6013C93.8907 54.1984 94.9457 53.1435 94.9457 51.8541V44.8211C94.9457 43.5317 93.8907 42.4767 92.6013 42.4767ZM92.6013 58.8871H41.026C39.7366 58.8871 38.6816 59.942 38.6816 61.2314V68.2644C38.6816 69.5538 39.7366 70.6088 41.026 70.6088H92.6013C93.8907 70.6088 94.9457 69.5538 94.9457 68.2644V61.2314C94.9457 59.942 93.8907 58.8871 92.6013 58.8871ZM92.6013 75.2974H41.026C39.7366 75.2974 38.6816 76.3524 38.6816 77.6418V84.6748C38.6816 85.9641 39.7366 87.0191 41.026 87.0191H92.6013C93.8907 87.0191 94.9457 85.9641 94.9457 84.6748V77.6418C94.9457 76.3524 93.8907 75.2974 92.6013 75.2974Z" fill="url(#paint5_linear_47_2677)"/>
<path d="M20.5137 23.7216V20.2051C18.1693 20.2051 16.0594 21.26 14.6528 23.0183C13.2462 21.3772 11.1363 20.2051 8.79199 20.2051V23.7216C11.0191 23.7216 12.8946 25.597 12.8946 27.8242V52.4397C12.8946 54.6668 11.0191 56.5423 8.79199 56.5423V60.0588C11.1363 60.0588 13.2462 59.0038 14.6528 57.2456C16.0594 58.8866 18.1693 60.0588 20.5137 60.0588V56.5423C18.2865 56.5423 16.4111 54.6668 16.4111 52.4397V27.8242C16.4111 25.597 18.2865 23.7216 20.5137 23.7216Z" fill="url(#paint6_linear_47_2677)"/>
<defs>
<radialGradient id="paint0_radial_47_2677" cx="0" cy="0" r="1" gradientUnits="userSpaceOnUse" gradientTransform="translate(67.282 99.9118) scale(57.7615 14.3359)">
<stop stop-color="#919FB9" stop-opacity="0.6"/>
<stop offset="0.191" stop-color="#95A3BC" stop-opacity="0.485"/>
<stop offset="0.392" stop-color="#A2AEC4" stop-opacity="0.365"/>
<stop offset="0.597" stop-color="#B7C0D1" stop-opacity="0.242"/>
<stop offset="0.803" stop-color="#D4DAE4" stop-opacity="0.118"/>
<stop offset="1" stop-color="#F7F9FB" stop-opacity="0"/>
</radialGradient>
<linearGradient id="paint1_linear_47_2677" x1="66.8131" y1="99.9125" x2="66.8131" y2="12" gradientUnits="userSpaceOnUse">
<stop stop-color="#7E4FC5"/>
<stop offset="1" stop-color="#BEA1E3"/>
</linearGradient>
<linearGradient id="paint2_linear_47_2677" x1="37.5089" y1="16.1026" x2="64.4687" y2="52.4398" gradientUnits="userSpaceOnUse">
<stop stop-color="#7930D5" stop-opacity="0"/>
<stop offset="1" stop-color="#BEA1E3"/>
</linearGradient>
<linearGradient id="paint3_linear_47_2677" x1="0" y1="40.1324" x2="64.4692" y2="40.1324" gradientUnits="userSpaceOnUse">
<stop stop-color="#48A5FA"/>
<stop offset="1" stop-color="#AE43F0"/>
</linearGradient>
<linearGradient id="paint4_linear_47_2677" x1="66.8134" y1="85.8466" x2="66.8134" y2="27.2383" gradientUnits="userSpaceOnUse">
<stop stop-color="#C1D6FF"/>
<stop offset="1" stop-color="#F2F9FF"/>
</linearGradient>
<linearGradient id="paint5_linear_47_2677" x1="66.8137" y1="86.9945" x2="66.8137" y2="21.9638" gradientUnits="userSpaceOnUse">
<stop stop-color="#096BFE" stop-opacity="0.4"/>
<stop offset="1" stop-color="#D0EBFF"/>
</linearGradient>
<linearGradient id="paint6_linear_47_2677" x1="14.6528" y1="60.0588" x2="14.6528" y2="20.2051" gradientUnits="userSpaceOnUse">
<stop stop-color="#3673E5"/>
<stop offset="1" stop-color="#174EB5"/>
</linearGradient>
</defs>
</svg>
