<svg width="144" height="144" viewBox="0 0 144 144" fill="none" xmlns="http://www.w3.org/2000/svg">
<path d="M130.895 134.848H53.5558C46.2749 134.848 40.4502 129.023 40.4502 121.742V26.6056C40.4502 19.3247 46.2749 13.5 53.5558 13.5H130.895C138.176 13.5 144 19.3247 144 26.6056V121.742C143.838 128.862 138.014 134.848 130.895 134.848Z" fill="url(#paint0_linear_129_4972)"/>
<path d="M53.394 13.5H88.9892V79.8368H40.4502V26.4438C40.4502 19.3247 46.2749 13.5 53.394 13.5Z" fill="url(#paint1_linear_129_4972)"/>
<path d="M87.3707 71.7414H1.61797C0.647191 71.7414 0 70.9325 0 70.1236V34.5282C0 33.5574 0.808987 32.9102 1.61797 32.9102H87.3707C88.3414 32.9102 88.9885 33.7192 88.9885 34.5282V70.1236C88.9885 70.9325 88.1796 71.7414 87.3707 71.7414Z" fill="url(#paint2_linear_129_4972)"/>
<path d="M4.85254 37.7734H84.1334V66.8968H4.85254V37.7734Z" fill="white"/>
<path d="M127.817 47.4731H99.9877C99.1783 47.4731 98.3694 46.8259 98.3694 45.8551V36.1473C98.3694 35.3383 99.0165 34.5293 99.9877 34.5293H127.817C128.626 34.5293 129.434 35.1765 129.434 36.1473V45.8551C129.434 46.8259 128.787 47.4731 127.817 47.4731ZM129.434 68.5069V58.7988C129.434 57.9899 128.787 57.181 127.817 57.181H99.9877C99.1783 57.181 98.3694 57.8281 98.3694 58.7988V68.5069C98.3694 69.3158 99.0165 70.1246 99.9877 70.1246H127.817C128.787 70.1246 129.434 69.4775 129.434 68.5069ZM129.434 91.1586V81.4505C129.434 80.6416 128.787 79.8327 127.817 79.8327H56.6256C55.8167 79.8327 55.0078 80.4798 55.0078 81.4505V91.1586C55.0078 91.9675 55.655 92.7763 56.6256 92.7763H127.817C128.787 92.7763 129.434 92.1292 129.434 91.1586ZM129.434 113.81V104.102C129.434 103.293 128.787 102.484 127.817 102.484H56.6256C55.8167 102.484 55.0078 103.132 55.0078 104.102V113.81C55.0078 114.619 55.655 115.428 56.6256 115.428H127.817C128.787 115.428 129.434 114.781 129.434 113.81Z" fill="url(#paint3_linear_129_4972)"/>
<path d="M127.817 34.5282C128.627 34.5282 129.435 35.1753 129.435 36.1461V45.854C129.435 46.6629 128.788 47.4719 127.817 47.4719H99.9881C99.1792 47.4719 98.3704 46.8247 98.3704 45.854V36.1461C98.3704 35.3372 99.0175 34.5282 99.9881 34.5282H127.817ZM127.817 57.18C128.627 57.18 129.435 57.8271 129.435 58.7978V68.5053C129.435 69.3148 128.788 70.1236 127.817 70.1236H99.9881C99.1792 70.1236 98.3704 69.4765 98.3704 68.5053V58.7978C98.3704 57.9889 99.0175 57.18 99.9881 57.18H127.817ZM127.817 79.8312C128.627 79.8312 129.435 80.4788 129.435 81.4495V91.157C129.435 91.9659 128.788 92.7753 127.817 92.7753H56.6265C55.8177 92.7753 55.0086 92.1282 55.0086 91.157V81.4495C55.0086 80.6406 55.6559 79.8312 56.6265 79.8312H127.817ZM127.817 102.483C128.627 102.483 129.435 103.13 129.435 104.101V113.809C129.435 114.618 128.788 115.427 127.817 115.427H56.6265C55.8177 115.427 55.0086 114.779 55.0086 113.809V104.101C55.0086 103.292 55.6559 102.483 56.6265 102.483H127.817ZM127.817 32.9102H99.9881C98.2086 32.9102 96.7521 34.3663 96.7521 36.1461V45.854C96.7521 47.6338 98.2086 49.0899 99.9881 49.0899H127.817C129.597 49.0899 131.053 47.6338 131.053 45.854V36.1461C131.053 34.3663 129.597 32.9102 127.817 32.9102ZM127.817 55.5617H99.9881C98.2086 55.5617 96.7521 57.0177 96.7521 58.7978V68.5053C96.7521 70.2854 98.2086 71.7414 99.9881 71.7414H127.817C129.597 71.7414 131.053 70.2854 131.053 68.5053V58.7978C131.053 57.0177 129.597 55.5617 127.817 55.5617ZM127.817 78.2134H56.6265C54.8468 78.2134 53.3906 79.6694 53.3906 81.4495V91.157C53.3906 92.9371 54.8468 94.3931 56.6265 94.3931H127.817C129.597 94.3931 131.053 92.9371 131.053 91.157V81.4495C131.053 79.6694 129.597 78.2134 127.817 78.2134ZM127.817 100.865H56.6265C54.8468 100.865 53.3906 102.321 53.3906 104.101V113.809C53.3906 115.589 54.8468 117.045 56.6265 117.045H127.817C129.597 117.045 131.053 115.589 131.053 113.809V104.101C131.053 102.321 129.597 100.865 127.817 100.865Z" fill="url(#paint4_linear_129_4972)"/>
<path d="M28.3165 29.6762V24.8223C25.0805 24.8223 22.1682 26.2785 20.2266 28.7054C18.285 26.4402 15.3727 24.8223 12.1367 24.8223V29.6762C15.2109 29.6762 17.7996 32.2649 17.7996 35.3391V69.3163C17.7996 72.3906 15.2109 74.9795 12.1367 74.9795V79.8333C15.3727 79.8333 18.285 78.3774 20.2266 75.9502C22.1682 78.2156 25.0805 79.8333 28.3165 79.8333V74.9795C25.2423 74.9795 22.6535 72.3906 22.6535 69.3163V35.3391C22.6535 32.2649 25.2423 29.6762 28.3165 29.6762Z" fill="url(#paint5_linear_129_4972)"/>
<defs>
<linearGradient id="paint0_linear_129_4972" x1="92.2253" y1="134.848" x2="92.2253" y2="13.5" gradientUnits="userSpaceOnUse">
<stop stop-color="#7E4FC5"/>
<stop offset="1" stop-color="#BEA1E3"/>
</linearGradient>
<linearGradient id="paint1_linear_129_4972" x1="51.776" y1="19.1629" x2="88.9892" y2="69.3198" gradientUnits="userSpaceOnUse">
<stop stop-color="#7930D5" stop-opacity="0"/>
<stop offset="1" stop-color="#BEA1E3"/>
</linearGradient>
<linearGradient id="paint2_linear_129_4972" x1="0" y1="52.3257" x2="88.9885" y2="52.3257" gradientUnits="userSpaceOnUse">
<stop stop-color="#48A5FA"/>
<stop offset="1" stop-color="#AE43F0"/>
</linearGradient>
<linearGradient id="paint3_linear_129_4972" x1="92.2215" y1="115.428" x2="92.2215" y2="34.5293" gradientUnits="userSpaceOnUse">
<stop stop-color="#C1D6FF"/>
<stop offset="1" stop-color="#F2F9FF"/>
</linearGradient>
<linearGradient id="paint4_linear_129_4972" x1="92.2218" y1="117.011" x2="92.2218" y2="27.2473" gradientUnits="userSpaceOnUse">
<stop stop-color="#096BFE" stop-opacity="0.4"/>
<stop offset="1" stop-color="#D0EBFF"/>
</linearGradient>
<linearGradient id="paint5_linear_129_4972" x1="20.2266" y1="79.8333" x2="20.2266" y2="24.8223" gradientUnits="userSpaceOnUse">
<stop stop-color="#3673E5"/>
<stop offset="1" stop-color="#174EB5"/>
</linearGradient>
</defs>
</svg>
