<svg width="144" height="144" viewBox="0 0 144 144" fill="none" xmlns="http://www.w3.org/2000/svg">
<path opacity="0.7" d="M75.6917 130.89C113.417 130.89 144 122.389 144 111.901C144 101.414 113.417 92.9121 75.6917 92.9121C37.9663 92.9121 7.38379 101.414 7.38379 111.901C7.38379 122.389 37.9663 130.89 75.6917 130.89Z" fill="url(#paint0_radial_47_2680)"/>
<path d="M106.681 111.901H43.6482C37.7141 111.901 32.9668 107.154 32.9668 101.22V23.6814C32.9668 17.7473 37.7141 13 43.6482 13H106.681C112.615 13 117.363 17.7473 117.363 23.6814V101.22C117.231 107.022 112.484 111.901 106.681 111.901Z" fill="url(#paint1_linear_47_2680)"/>
<path d="M43.5163 13H72.5274V67.0661H32.9668V23.5495C32.9668 17.7473 37.7141 13 43.5163 13Z" fill="url(#paint2_linear_47_2680)"/>
<path d="M71.2091 60.4727H1.31869C0.527475 60.4727 0 59.8134 0 59.154V30.1429C0 29.3517 0.659343 28.8242 1.31869 28.8242H71.2091C72.0003 28.8242 72.5277 29.4836 72.5277 30.1429V59.154C72.5277 59.8134 71.8684 60.4727 71.2091 60.4727Z" fill="url(#paint3_linear_47_2680)"/>
<path d="M3.95605 32.7812H68.5717V56.5176H3.95605V32.7812Z" fill="white"/>
<path d="M104.176 40.6921H81.4944C80.8351 40.6921 80.1758 40.1646 80.1758 39.3734V31.4613C80.1758 30.8019 80.7032 30.1426 81.4944 30.1426H104.176C104.835 30.1426 105.495 30.6701 105.495 31.4613V39.3734C105.495 40.1646 104.967 40.6921 104.176 40.6921ZM105.495 57.835V49.9229C105.495 49.2635 104.967 48.6042 104.176 48.6042H81.4944C80.8351 48.6042 80.1758 49.1317 80.1758 49.9229V57.835C80.1758 58.4943 80.7032 59.1537 81.4944 59.1537H104.176C104.967 59.1537 105.495 58.6262 105.495 57.835ZM105.495 76.2966V68.3845C105.495 67.7251 104.967 67.0658 104.176 67.0658H46.1536C45.4943 67.0658 44.835 67.5933 44.835 68.3845V76.2966C44.835 76.9559 45.3624 77.6153 46.1536 77.6153H104.176C104.967 77.6153 105.495 77.0878 105.495 76.2966ZM105.495 94.7582V86.8461C105.495 86.1868 104.967 85.5274 104.176 85.5274H46.1536C45.4943 85.5274 44.835 86.0549 44.835 86.8461V94.7582C44.835 95.4176 45.3624 96.0769 46.1536 96.0769H104.176C104.967 96.0769 105.495 95.5494 105.495 94.7582Z" fill="url(#paint4_linear_47_2680)"/>
<path d="M104.176 30.1429C104.836 30.1429 105.495 30.6704 105.495 31.4616V39.3737C105.495 40.0331 104.967 40.6924 104.176 40.6924H81.4948C80.8354 40.6924 80.1761 40.1649 80.1761 39.3737V31.4616C80.1761 30.8022 80.7036 30.1429 81.4948 30.1429H104.176ZM104.176 48.6045C104.836 48.6045 105.495 49.132 105.495 49.9232V57.8353C105.495 58.4947 104.967 59.154 104.176 59.154H81.4948C80.8354 59.154 80.1761 58.6265 80.1761 57.8353V49.9232C80.1761 49.2639 80.7036 48.6045 81.4948 48.6045H104.176ZM104.176 67.0661C104.836 67.0661 105.495 67.5936 105.495 68.3848V76.2969C105.495 76.9563 104.967 77.6156 104.176 77.6156H46.154C45.4946 77.6156 44.8353 77.0881 44.8353 76.2969V68.3848C44.8353 67.7255 45.3628 67.0661 46.154 67.0661H104.176ZM104.176 85.5277C104.836 85.5277 105.495 86.0552 105.495 86.8464V94.7585C105.495 95.4179 104.967 96.0772 104.176 96.0772H46.154C45.4946 96.0772 44.8353 95.5498 44.8353 94.7585V86.8464C44.8353 86.1871 45.3628 85.5277 46.154 85.5277H104.176ZM104.176 28.8242H81.4948C80.0442 28.8242 78.8574 30.011 78.8574 31.4616V39.3737C78.8574 40.8243 80.0442 42.0111 81.4948 42.0111H104.176C105.627 42.0111 106.814 40.8243 106.814 39.3737V31.4616C106.814 30.011 105.627 28.8242 104.176 28.8242ZM104.176 47.2858H81.4948C80.0442 47.2858 78.8574 48.4726 78.8574 49.9232V57.8353C78.8574 59.2859 80.0442 60.4727 81.4948 60.4727H104.176C105.627 60.4727 106.814 59.2859 106.814 57.8353V49.9232C106.814 48.4726 105.627 47.2858 104.176 47.2858ZM104.176 65.7474H46.154C44.7034 65.7474 43.5166 66.9343 43.5166 68.3848V76.2969C43.5166 77.7475 44.7034 78.9343 46.154 78.9343H104.176C105.627 78.9343 106.814 77.7475 106.814 76.2969V68.3848C106.814 66.9343 105.627 65.7474 104.176 65.7474ZM104.176 84.209H46.154C44.7034 84.209 43.5166 85.3959 43.5166 86.8464V94.7585C43.5166 96.2091 44.7034 97.3959 46.154 97.3959H104.176C105.627 97.3959 106.814 96.2091 106.814 94.7585V86.8464C106.814 85.3959 105.627 84.209 104.176 84.209Z" fill="url(#paint5_linear_47_2680)"/>
<path d="M23.0775 26.1865V22.2305C20.4401 22.2305 18.0665 23.4173 16.4841 25.3953C14.9016 23.5492 12.528 22.2305 9.89062 22.2305V26.1865C12.3961 26.1865 14.506 28.2964 14.506 30.8019V58.4943C14.506 60.9999 12.3961 63.1097 9.89062 63.1097V67.0658C12.528 67.0658 14.9016 65.879 16.4841 63.901C18.0665 65.7471 20.4401 67.0658 23.0775 67.0658V63.1097C20.572 63.1097 18.4621 60.9999 18.4621 58.4943V30.8019C18.4621 28.2964 20.572 26.1865 23.0775 26.1865Z" fill="url(#paint6_linear_47_2680)"/>
<defs>
<radialGradient id="paint0_radial_47_2680" cx="0" cy="0" r="1" gradientUnits="userSpaceOnUse" gradientTransform="translate(75.692 111.9) scale(64.9816 16.1279)">
<stop stop-color="#919FB9" stop-opacity="0.6"/>
<stop offset="0.191" stop-color="#95A3BC" stop-opacity="0.485"/>
<stop offset="0.392" stop-color="#A2AEC4" stop-opacity="0.365"/>
<stop offset="0.597" stop-color="#B7C0D1" stop-opacity="0.242"/>
<stop offset="0.803" stop-color="#D4DAE4" stop-opacity="0.118"/>
<stop offset="1" stop-color="#F7F9FB" stop-opacity="0"/>
</radialGradient>
<linearGradient id="paint1_linear_47_2680" x1="75.1648" y1="111.901" x2="75.1648" y2="13" gradientUnits="userSpaceOnUse">
<stop stop-color="#7E4FC5"/>
<stop offset="1" stop-color="#BEA1E3"/>
</linearGradient>
<linearGradient id="paint2_linear_47_2680" x1="42.1976" y1="17.6154" x2="72.5274" y2="58.4947" gradientUnits="userSpaceOnUse">
<stop stop-color="#7930D5" stop-opacity="0"/>
<stop offset="1" stop-color="#BEA1E3"/>
</linearGradient>
<linearGradient id="paint3_linear_47_2680" x1="0" y1="44.6485" x2="72.5277" y2="44.6485" gradientUnits="userSpaceOnUse">
<stop stop-color="#48A5FA"/>
<stop offset="1" stop-color="#AE43F0"/>
</linearGradient>
<linearGradient id="paint4_linear_47_2680" x1="75.1647" y1="96.0769" x2="75.1647" y2="30.1426" gradientUnits="userSpaceOnUse">
<stop stop-color="#C1D6FF"/>
<stop offset="1" stop-color="#F2F9FF"/>
</linearGradient>
<linearGradient id="paint5_linear_47_2680" x1="75.1651" y1="97.3682" x2="75.1651" y2="24.2088" gradientUnits="userSpaceOnUse">
<stop stop-color="#096BFE" stop-opacity="0.4"/>
<stop offset="1" stop-color="#D0EBFF"/>
</linearGradient>
<linearGradient id="paint6_linear_47_2680" x1="16.4841" y1="67.0658" x2="16.4841" y2="22.2305" gradientUnits="userSpaceOnUse">
<stop stop-color="#3673E5"/>
<stop offset="1" stop-color="#174EB5"/>
</linearGradient>
</defs>
</svg>
