<svg width="256" height="256" viewBox="0 0 256 256" fill="none" xmlns="http://www.w3.org/2000/svg">
<path d="M232.701 239.729H95.209C82.2652 239.729 71.9102 229.375 71.9102 216.431V47.2988C71.9102 34.355 82.2652 24 95.209 24H232.701C245.645 24 255.999 34.355 255.999 47.2988V216.431C255.711 229.087 245.357 239.729 232.701 239.729Z" fill="url(#paint0_linear_129_4981)"/>
<path d="M94.9214 24H158.202V141.932H71.9102V47.0111C71.9102 34.355 82.2652 24 94.9214 24Z" fill="url(#paint1_linear_129_4981)"/>
<path d="M155.326 127.541H2.8764C1.15056 127.541 0 126.103 0 124.665V61.3843C0 59.6584 1.4382 58.5078 2.8764 58.5078H155.326C157.051 58.5078 158.202 59.9461 158.202 61.3843V124.665C158.202 126.103 156.764 127.541 155.326 127.541Z" fill="url(#paint2_linear_129_4981)"/>
<path d="M8.62695 67.1543H149.571V118.929H8.62695V67.1543Z" fill="white"/>
<path d="M227.231 84.396H177.757C176.318 84.396 174.88 83.2454 174.88 81.5196V64.2612C174.88 62.823 176.031 61.3848 177.757 61.3848H227.231C228.669 61.3848 230.107 62.5354 230.107 64.2612V81.5196C230.107 83.2454 228.957 84.396 227.231 84.396ZM230.107 121.789V104.531C230.107 103.093 228.957 101.655 227.231 101.655H177.757C176.318 101.655 174.88 102.805 174.88 104.531V121.789C174.88 123.227 176.031 124.665 177.757 124.665H227.231C228.957 124.665 230.107 123.515 230.107 121.789ZM230.107 162.059V144.8C230.107 143.362 228.957 141.924 227.231 141.924H100.669C99.2311 141.924 97.793 143.075 97.793 144.8V162.059C97.793 163.497 98.9435 164.935 100.669 164.935H227.231C228.957 164.935 230.107 163.785 230.107 162.059ZM230.107 202.328V185.07C230.107 183.632 228.957 182.193 227.231 182.193H100.669C99.2311 182.193 97.793 183.344 97.793 185.07V202.328C97.793 203.767 98.9435 205.205 100.669 205.205H227.231C228.957 205.205 230.107 204.054 230.107 202.328Z" fill="url(#paint3_linear_129_4981)"/>
<path d="M227.23 61.3843C228.669 61.3843 230.107 62.5348 230.107 64.2607V81.519C230.107 82.9572 228.956 84.3954 227.23 84.3954H177.756C176.318 84.3954 174.88 83.2448 174.88 81.519V64.2607C174.88 62.8225 176.03 61.3843 177.756 61.3843H227.23ZM227.23 101.654C228.669 101.654 230.107 102.805 230.107 104.53V121.788C230.107 123.227 228.956 124.665 227.23 124.665H177.756C176.318 124.665 174.88 123.515 174.88 121.788V104.53C174.88 103.092 176.03 101.654 177.756 101.654H227.23ZM227.23 141.923C228.669 141.923 230.107 143.074 230.107 144.8V162.058C230.107 163.496 228.956 164.935 227.23 164.935H100.669C99.2308 164.935 97.7924 163.784 97.7924 162.058V144.8C97.7924 143.362 98.9432 141.923 100.669 141.923H227.23ZM227.23 182.193C228.669 182.193 230.107 183.343 230.107 185.07V202.327C230.107 203.765 228.956 205.204 227.23 205.204H100.669C99.2308 205.204 97.7924 204.053 97.7924 202.327V185.07C97.7924 183.631 98.9432 182.193 100.669 182.193H227.23ZM227.23 58.5078H177.756C174.592 58.5078 172.003 61.0966 172.003 64.2607V81.519C172.003 84.6831 174.592 87.2718 177.756 87.2718H227.23C230.394 87.2718 232.983 84.6831 232.983 81.519V64.2607C232.983 61.0966 230.394 58.5078 227.23 58.5078ZM227.23 98.7773H177.756C174.592 98.7773 172.003 101.366 172.003 104.53V121.788C172.003 124.953 174.592 127.541 177.756 127.541H227.23C230.394 127.541 232.983 124.953 232.983 121.788V104.53C232.983 101.366 230.394 98.7773 227.23 98.7773ZM227.23 139.047H100.669C97.5048 139.047 94.916 141.635 94.916 144.8V162.058C94.916 165.222 97.5048 167.811 100.669 167.811H227.23C230.394 167.811 232.983 165.222 232.983 162.058V144.8C232.983 141.635 230.394 139.047 227.23 139.047ZM227.23 179.317H100.669C97.5048 179.317 94.916 181.905 94.916 185.07V202.327C94.916 205.492 97.5048 208.08 100.669 208.08H227.23C230.394 208.08 232.983 205.492 232.983 202.327V185.07C232.983 181.905 230.394 179.317 227.23 179.317Z" fill="url(#paint4_linear_129_4981)"/>
<path d="M50.3421 52.7581V44.1289C44.5893 44.1289 39.4118 46.7177 35.9601 51.0323C32.5084 47.0053 27.331 44.1289 21.5781 44.1289V52.7581C27.0433 52.7581 31.6455 57.3603 31.6455 62.8255V123.23C31.6455 128.695 27.0433 133.297 21.5781 133.297V141.926C27.331 141.926 32.5084 139.338 35.9601 135.023C39.4118 139.05 44.5893 141.926 50.3421 141.926V133.297C44.8769 133.297 40.2747 128.695 40.2747 123.23V62.8255C40.2747 57.3603 44.8769 52.7581 50.3421 52.7581Z" fill="url(#paint5_linear_129_4981)"/>
<defs>
<linearGradient id="paint0_linear_129_4981" x1="163.955" y1="239.729" x2="163.955" y2="24" gradientUnits="userSpaceOnUse">
<stop stop-color="#7E4FC5"/>
<stop offset="1" stop-color="#BEA1E3"/>
</linearGradient>
<linearGradient id="paint1_linear_129_4981" x1="92.0449" y1="34.0674" x2="158.202" y2="123.235" gradientUnits="userSpaceOnUse">
<stop stop-color="#7930D5" stop-opacity="0"/>
<stop offset="1" stop-color="#BEA1E3"/>
</linearGradient>
<linearGradient id="paint2_linear_129_4981" x1="0" y1="93.0243" x2="158.202" y2="93.0243" gradientUnits="userSpaceOnUse">
<stop stop-color="#48A5FA"/>
<stop offset="1" stop-color="#AE43F0"/>
</linearGradient>
<linearGradient id="paint3_linear_129_4981" x1="163.951" y1="205.205" x2="163.951" y2="61.3848" gradientUnits="userSpaceOnUse">
<stop stop-color="#C1D6FF"/>
<stop offset="1" stop-color="#F2F9FF"/>
</linearGradient>
<linearGradient id="paint4_linear_129_4981" x1="163.949" y1="208.02" x2="163.949" y2="48.4405" gradientUnits="userSpaceOnUse">
<stop stop-color="#096BFE" stop-opacity="0.4"/>
<stop offset="1" stop-color="#D0EBFF"/>
</linearGradient>
<linearGradient id="paint5_linear_129_4981" x1="35.9601" y1="141.926" x2="35.9601" y2="44.1289" gradientUnits="userSpaceOnUse">
<stop stop-color="#3673E5"/>
<stop offset="1" stop-color="#174EB5"/>
</linearGradient>
</defs>
</svg>
