<svg width="32" height="32" viewBox="0 0 32 32" fill="none" xmlns="http://www.w3.org/2000/svg">
<path d="M29.0881 29.9662H11.9016C10.2836 29.9662 8.98926 28.6718 8.98926 27.0539V5.91235C8.98926 4.29438 10.2836 3 11.9016 3H29.0881C30.7061 3 32.0004 4.29438 32.0004 5.91235V27.0539C31.9644 28.6359 30.6701 29.9662 29.0881 29.9662Z" fill="url(#paint0_linear_129_4944)"/>
<path d="M11.8657 3H19.7757V17.7415H8.98926V5.87639C8.98926 4.29438 10.2836 3 11.8657 3Z" fill="url(#paint1_linear_129_4944)"/>
<path d="M19.4157 15.9436H0.35955C0.14382 15.9436 0 15.7639 0 15.5841V7.67401C0 7.45828 0.179775 7.31445 0.35955 7.31445H19.4157C19.6314 7.31445 19.7752 7.49424 19.7752 7.67401V15.5841C19.7752 15.7639 19.5955 15.9436 19.4157 15.9436Z" fill="url(#paint2_linear_129_4944)"/>
<path d="M1.07812 8.39453H18.6961V14.8664H1.07812V8.39453Z" fill="white"/>
<path d="M28.4034 10.5502H22.2192C22.0393 10.5502 21.8595 10.4064 21.8595 10.1907V8.03339C21.8595 7.8536 22.0033 7.67383 22.2192 7.67383H28.4034C28.5831 7.67383 28.7629 7.81765 28.7629 8.03339V10.1907C28.7629 10.4064 28.6191 10.5502 28.4034 10.5502ZM28.7629 15.2244V13.067C28.7629 12.8873 28.6191 12.7076 28.4034 12.7076H22.2192C22.0393 12.7076 21.8595 12.8513 21.8595 13.067V15.2244C21.8595 15.4042 22.0033 15.5839 22.2192 15.5839H28.4034C28.6191 15.5839 28.7629 15.4401 28.7629 15.2244ZM28.7629 20.2581V18.1008C28.7629 17.921 28.6191 17.7413 28.4034 17.7413H12.5831C12.4034 17.7413 12.2236 17.8851 12.2236 18.1008V20.2581C12.2236 20.4379 12.3674 20.6176 12.5831 20.6176H28.4034C28.6191 20.6176 28.7629 20.4738 28.7629 20.2581ZM28.7629 25.2917V23.1345C28.7629 22.9547 28.6191 22.7748 28.4034 22.7748H12.5831C12.4034 22.7748 12.2236 22.9188 12.2236 23.1345V25.2917C12.2236 25.4716 12.3674 25.6513 12.5831 25.6513H28.4034C28.6191 25.6513 28.7629 25.5075 28.7629 25.2917Z" fill="url(#paint3_linear_129_4944)"/>
<path d="M28.4035 7.67401C28.5834 7.67401 28.7631 7.81782 28.7631 8.03356V10.1909C28.7631 10.3706 28.6193 10.5504 28.4035 10.5504H22.2193C22.0395 10.5504 21.8598 10.4066 21.8598 10.1909V8.03356C21.8598 7.85379 22.0036 7.67401 22.2193 7.67401H28.4035ZM28.4035 12.7078C28.5834 12.7078 28.7631 12.8516 28.7631 13.0673V15.2245C28.7631 15.4044 28.6193 15.5841 28.4035 15.5841H22.2193C22.0395 15.5841 21.8598 15.4403 21.8598 15.2245V13.0673C21.8598 12.8875 22.0036 12.7078 22.2193 12.7078H28.4035ZM28.4035 17.7413C28.5834 17.7413 28.7631 17.8853 28.7631 18.101V20.2582C28.7631 20.438 28.6193 20.6178 28.4035 20.6178H12.5834C12.4036 20.6178 12.2238 20.474 12.2238 20.2582V18.101C12.2238 17.9212 12.3677 17.7413 12.5834 17.7413H28.4035ZM28.4035 22.7751C28.5834 22.7751 28.7631 22.9189 28.7631 23.1347V25.2919C28.7631 25.4717 28.6193 25.6515 28.4035 25.6515H12.5834C12.4036 25.6515 12.2238 25.5076 12.2238 25.2919V23.1347C12.2238 22.9548 12.3677 22.7751 12.5834 22.7751H28.4035ZM28.4035 7.31445H22.2193C21.8238 7.31445 21.5001 7.63805 21.5001 8.03356V10.1909C21.5001 10.5864 21.8238 10.91 22.2193 10.91H28.4035C28.7991 10.91 29.1226 10.5864 29.1226 10.1909V8.03356C29.1226 7.63805 28.7991 7.31445 28.4035 7.31445ZM28.4035 12.3481H22.2193C21.8238 12.3481 21.5001 12.6717 21.5001 13.0673V15.2245C21.5001 15.6201 21.8238 15.9436 22.2193 15.9436H28.4035C28.7991 15.9436 29.1226 15.6201 29.1226 15.2245V13.0673C29.1226 12.6717 28.7991 12.3481 28.4035 12.3481ZM28.4035 17.3819H12.5834C12.1879 17.3819 11.8643 17.7054 11.8643 18.101V20.2582C11.8643 20.6538 12.1879 20.9773 12.5834 20.9773H28.4035C28.7991 20.9773 29.1226 20.6538 29.1226 20.2582V18.101C29.1226 17.7054 28.7991 17.3819 28.4035 17.3819ZM28.4035 22.4156H12.5834C12.1879 22.4156 11.8643 22.7391 11.8643 23.1347V25.2919C11.8643 25.6875 12.1879 26.011 12.5834 26.011H28.4035C28.7991 26.011 29.1226 25.6875 29.1226 25.2919V23.1347C29.1226 22.7391 28.7991 22.4156 28.4035 22.4156Z" fill="url(#paint4_linear_129_4944)"/>
<path d="M6.29276 6.59428V5.51562C5.57367 5.51562 4.92647 5.83922 4.49501 6.37854C4.06355 5.87517 3.41637 5.51562 2.69727 5.51562V6.59428C3.38041 6.59428 3.95569 7.16955 3.95569 7.85269V15.4032C3.95569 16.0864 3.38041 16.6617 2.69727 16.6617V17.7403C3.41637 17.7403 4.06355 17.4168 4.49501 16.8774C4.92647 17.3808 5.57367 17.7403 6.29276 17.7403V16.6617C5.60962 16.6617 5.03434 16.0864 5.03434 15.4032V7.85269C5.03434 7.16955 5.60962 6.59428 6.29276 6.59428Z" fill="url(#paint5_linear_129_4944)"/>
<defs>
<linearGradient id="paint0_linear_129_4944" x1="20.4948" y1="29.9662" x2="20.4948" y2="3" gradientUnits="userSpaceOnUse">
<stop stop-color="#7E4FC5"/>
<stop offset="1" stop-color="#BEA1E3"/>
</linearGradient>
<linearGradient id="paint1_linear_129_4944" x1="11.5061" y1="4.25843" x2="19.7757" y2="15.4044" gradientUnits="userSpaceOnUse">
<stop stop-color="#7930D5" stop-opacity="0"/>
<stop offset="1" stop-color="#BEA1E3"/>
</linearGradient>
<linearGradient id="paint2_linear_129_4944" x1="0" y1="11.629" x2="19.7752" y2="11.629" gradientUnits="userSpaceOnUse">
<stop stop-color="#48A5FA"/>
<stop offset="1" stop-color="#AE43F0"/>
</linearGradient>
<linearGradient id="paint3_linear_129_4944" x1="20.4933" y1="25.6513" x2="20.4933" y2="7.67383" gradientUnits="userSpaceOnUse">
<stop stop-color="#C1D6FF"/>
<stop offset="1" stop-color="#F2F9FF"/>
</linearGradient>
<linearGradient id="paint4_linear_129_4944" x1="20.4934" y1="26.0034" x2="20.4934" y2="6.05604" gradientUnits="userSpaceOnUse">
<stop stop-color="#096BFE" stop-opacity="0.4"/>
<stop offset="1" stop-color="#D0EBFF"/>
</linearGradient>
<linearGradient id="paint5_linear_129_4944" x1="4.49501" y1="17.7403" x2="4.49501" y2="5.51562" gradientUnits="userSpaceOnUse">
<stop stop-color="#3673E5"/>
<stop offset="1" stop-color="#174EB5"/>
</linearGradient>
</defs>
</svg>
