<svg width="32" height="32" viewBox="0 0 32 32" fill="none" xmlns="http://www.w3.org/2000/svg">
<path opacity="0.7" d="M16.8202 29.1974C25.2036 29.1974 31.9998 27.3081 31.9998 24.9776C31.9998 22.6471 25.2036 20.7578 16.8202 20.7578C8.43675 20.7578 1.64062 22.6471 1.64062 24.9776C1.64062 27.3081 8.43675 29.1974 16.8202 29.1974Z" fill="url(#paint0_radial_47_2671)"/>
<path d="M23.7072 24.9781H9.69981C8.38112 24.9781 7.32617 23.9232 7.32617 22.6045V5.37364C7.32617 4.05495 8.38112 3 9.69981 3H23.7072C25.0259 3 26.0808 4.05495 26.0808 5.37364V22.6045C26.0515 23.8939 24.9966 24.9781 23.7072 24.9781Z" fill="url(#paint1_linear_47_2671)"/>
<path d="M9.67051 3H16.1174V15.0147H7.32617V5.34433C7.32617 4.05495 8.38112 3 9.67051 3Z" fill="url(#paint2_linear_47_2671)"/>
<path d="M15.8243 13.5486H0.293042C0.117217 13.5486 0 13.4021 0 13.2556V6.80867C0 6.63284 0.146521 6.51562 0.293042 6.51562H15.8243C16.0001 6.51562 16.1173 6.66215 16.1173 6.80867V13.2556C16.1173 13.4021 15.9708 13.5486 15.8243 13.5486Z" fill="url(#paint3_linear_47_2671)"/>
<path d="M0.878906 7.39648H15.238V12.6712H0.878906V7.39648Z" fill="white"/>
<path d="M23.1498 9.15293H18.1095C17.9629 9.15293 17.8164 9.03571 17.8164 8.85989V7.10164C17.8164 6.95511 17.9336 6.80859 18.1095 6.80859H23.1498C23.2963 6.80859 23.4428 6.92581 23.4428 7.10164V8.85989C23.4428 9.03571 23.3256 9.15293 23.1498 9.15293ZM23.4428 12.9625V11.2042C23.4428 11.0577 23.3256 10.9112 23.1498 10.9112H18.1095C17.9629 10.9112 17.8164 11.0284 17.8164 11.2042V12.9625C17.8164 13.109 17.9336 13.2555 18.1095 13.2555H23.1498C23.3256 13.2555 23.4428 13.1383 23.4428 12.9625ZM23.4428 17.0651V15.3068C23.4428 15.1603 23.3256 15.0138 23.1498 15.0138H10.2559C10.1094 15.0138 9.96289 15.131 9.96289 15.3068V17.0651C9.96289 17.2116 10.0801 17.3581 10.2559 17.3581H23.1498C23.3256 17.3581 23.4428 17.2409 23.4428 17.0651ZM23.4428 21.1676V19.4094C23.4428 19.2629 23.3256 19.1163 23.1498 19.1163H10.2559C10.1094 19.1163 9.96289 19.2336 9.96289 19.4094V21.1676C9.96289 21.3142 10.0801 21.4607 10.2559 21.4607H23.1498C23.3256 21.4607 23.4428 21.3435 23.4428 21.1676Z" fill="url(#paint4_linear_47_2671)"/>
<path d="M23.1498 6.80867C23.2964 6.80867 23.4429 6.92588 23.4429 7.10171V8.85996C23.4429 9.00648 23.3257 9.153 23.1498 9.153H18.1095C17.963 9.153 17.8165 9.03578 17.8165 8.85996V7.10171C17.8165 6.95519 17.9337 6.80867 18.1095 6.80867H23.1498ZM23.1498 10.9113C23.2964 10.9113 23.4429 11.0285 23.4429 11.2043V12.9625C23.4429 13.1091 23.3257 13.2556 23.1498 13.2556H18.1095C17.963 13.2556 17.8165 13.1384 17.8165 12.9625V11.2043C17.8165 11.0578 17.9337 10.9113 18.1095 10.9113H23.1498ZM23.1498 15.0138C23.2964 15.0138 23.4429 15.1311 23.4429 15.3069V17.0651C23.4429 17.2116 23.3257 17.3582 23.1498 17.3582H10.256C10.1095 17.3582 9.96296 17.241 9.96296 17.0651V15.3069C9.96296 15.1604 10.0802 15.0138 10.256 15.0138H23.1498ZM23.1498 19.1164C23.2964 19.1164 23.4429 19.2336 23.4429 19.4095V21.1677C23.4429 21.3142 23.3257 21.4608 23.1498 21.4608H10.256C10.1095 21.4608 9.96296 21.3435 9.96296 21.1677V19.4095C9.96296 19.2629 10.0802 19.1164 10.256 19.1164H23.1498ZM23.1498 6.51562H18.1095C17.7872 6.51562 17.5234 6.77936 17.5234 7.10171V8.85996C17.5234 9.18231 17.7872 9.44604 18.1095 9.44604H23.1498C23.4722 9.44604 23.7359 9.18231 23.7359 8.85996V7.10171C23.7359 6.77936 23.4722 6.51562 23.1498 6.51562ZM23.1498 10.6182H18.1095C17.7872 10.6182 17.5234 10.8819 17.5234 11.2043V12.9625C17.5234 13.2849 17.7872 13.5486 18.1095 13.5486H23.1498C23.4722 13.5486 23.7359 13.2849 23.7359 12.9625V11.2043C23.7359 10.8819 23.4722 10.6182 23.1498 10.6182ZM23.1498 14.7208H10.256C9.93366 14.7208 9.66992 14.9845 9.66992 15.3069V17.0651C9.66992 17.3875 9.93366 17.6512 10.256 17.6512H23.1498C23.4722 17.6512 23.7359 17.3875 23.7359 17.0651V15.3069C23.7359 14.9845 23.4722 14.7208 23.1498 14.7208ZM23.1498 18.8234H10.256C9.93366 18.8234 9.66992 19.0871 9.66992 19.4095V21.1677C9.66992 21.4901 9.93366 21.7538 10.256 21.7538H23.1498C23.4722 21.7538 23.7359 21.4901 23.7359 21.1677V19.4095C23.7359 19.0871 23.4722 18.8234 23.1498 18.8234Z" fill="url(#paint5_linear_47_2671)"/>
<path d="M5.12866 5.92991V5.05078C4.54258 5.05078 4.0151 5.31452 3.66345 5.75408C3.3118 5.34382 2.78433 5.05078 2.19824 5.05078V5.92991C2.75502 5.92991 3.22389 6.39877 3.22389 6.95555V13.1094C3.22389 13.6662 2.75502 14.1351 2.19824 14.1351V15.0142C2.78433 15.0142 3.3118 14.7505 3.66345 14.3109C4.0151 14.7212 4.54258 15.0142 5.12866 15.0142V14.1351C4.57188 14.1351 4.10301 13.6662 4.10301 13.1094V6.95555C4.10301 6.39877 4.57188 5.92991 5.12866 5.92991Z" fill="url(#paint6_linear_47_2671)"/>
<defs>
<radialGradient id="paint0_radial_47_2671" cx="0" cy="0" r="1" gradientUnits="userSpaceOnUse" gradientTransform="translate(16.8202 24.9775) scale(14.4404 3.58397)">
<stop stop-color="#919FB9" stop-opacity="0.6"/>
<stop offset="0.191" stop-color="#95A3BC" stop-opacity="0.485"/>
<stop offset="0.392" stop-color="#A2AEC4" stop-opacity="0.365"/>
<stop offset="0.597" stop-color="#B7C0D1" stop-opacity="0.242"/>
<stop offset="0.803" stop-color="#D4DAE4" stop-opacity="0.118"/>
<stop offset="1" stop-color="#F7F9FB" stop-opacity="0"/>
</radialGradient>
<linearGradient id="paint1_linear_47_2671" x1="16.7035" y1="24.9781" x2="16.7035" y2="3" gradientUnits="userSpaceOnUse">
<stop stop-color="#7E4FC5"/>
<stop offset="1" stop-color="#BEA1E3"/>
</linearGradient>
<linearGradient id="paint2_linear_47_2671" x1="9.37746" y1="4.02565" x2="16.1174" y2="13.1099" gradientUnits="userSpaceOnUse">
<stop stop-color="#7930D5" stop-opacity="0"/>
<stop offset="1" stop-color="#BEA1E3"/>
</linearGradient>
<linearGradient id="paint3_linear_47_2671" x1="0" y1="10.0321" x2="16.1173" y2="10.0321" gradientUnits="userSpaceOnUse">
<stop stop-color="#48A5FA"/>
<stop offset="1" stop-color="#AE43F0"/>
</linearGradient>
<linearGradient id="paint4_linear_47_2671" x1="16.7029" y1="21.4607" x2="16.7029" y2="6.80859" gradientUnits="userSpaceOnUse">
<stop stop-color="#C1D6FF"/>
<stop offset="1" stop-color="#F2F9FF"/>
</linearGradient>
<linearGradient id="paint5_linear_47_2671" x1="16.7029" y1="21.7476" x2="16.7029" y2="5.48998" gradientUnits="userSpaceOnUse">
<stop stop-color="#096BFE" stop-opacity="0.4"/>
<stop offset="1" stop-color="#D0EBFF"/>
</linearGradient>
<linearGradient id="paint6_linear_47_2671" x1="3.66345" y1="15.0142" x2="3.66345" y2="5.05078" gradientUnits="userSpaceOnUse">
<stop stop-color="#3673E5"/>
<stop offset="1" stop-color="#174EB5"/>
</linearGradient>
</defs>
</svg>
