<svg width="512" height="512" viewBox="0 0 512 512" fill="none" xmlns="http://www.w3.org/2000/svg">
<path d="M465.403 479.459H190.42C164.532 479.459 143.822 458.75 143.822 432.862V94.5976C143.822 68.71 164.532 48 190.42 48H465.403C491.291 48 512 68.71 512 94.5976V432.862C511.425 458.174 490.716 479.459 465.403 479.459Z" fill="url(#paint0_linear_129_4990)"/>
<path d="M189.845 48H316.406V283.864H143.822V94.0222C143.822 68.71 164.532 48 189.845 48Z" fill="url(#paint1_linear_129_4990)"/>
<path d="M310.652 255.082H5.75279C2.30112 255.082 0 252.206 0 249.33V122.769C0 119.317 2.8764 117.016 5.75279 117.016H310.652C314.103 117.016 316.404 119.892 316.404 122.769V249.33C316.404 252.206 313.528 255.082 310.652 255.082Z" fill="url(#paint2_linear_129_4990)"/>
<path d="M17.2539 134.309H299.142V237.858H17.2539V134.309Z" fill="white"/>
<path d="M454.46 168.79H355.513C352.635 168.79 349.759 166.489 349.759 163.037V128.521C349.759 125.644 352.059 122.768 355.513 122.768H454.46C457.336 122.768 460.212 125.069 460.212 128.521V163.037C460.212 166.489 457.911 168.79 454.46 168.79ZM460.212 243.577V209.059C460.212 206.183 457.911 203.307 454.46 203.307H355.513C352.635 203.307 349.759 205.608 349.759 209.059V243.577C349.759 246.453 352.059 249.329 355.513 249.329H454.46C457.911 249.329 460.212 247.028 460.212 243.577ZM460.212 324.116V289.598C460.212 286.722 457.911 283.846 454.46 283.846H201.336C198.46 283.846 195.584 286.147 195.584 289.598V324.116C195.584 326.992 197.885 329.868 201.336 329.868H454.46C457.911 329.868 460.212 327.567 460.212 324.116ZM460.212 404.654V370.138C460.212 367.262 457.911 364.384 454.46 364.384H201.336C198.46 364.384 195.584 366.687 195.584 370.138V404.654C195.584 407.532 197.885 410.408 201.336 410.408H454.46C457.911 410.408 460.212 408.107 460.212 404.654Z" fill="url(#paint3_linear_129_4990)"/>
<path d="M454.462 122.769C457.339 122.769 460.215 125.07 460.215 128.521V163.038C460.215 165.914 457.915 168.791 454.462 168.791H355.514C352.638 168.791 349.762 166.49 349.762 163.038V128.521C349.762 125.645 352.063 122.769 355.514 122.769H454.462ZM454.462 203.309C457.339 203.309 460.215 205.609 460.215 209.061V243.576C460.215 246.454 457.915 249.33 454.462 249.33H355.514C352.638 249.33 349.762 247.029 349.762 243.576V209.061C349.762 206.185 352.063 203.309 355.514 203.309H454.462ZM454.462 283.846C457.339 283.846 460.215 286.149 460.215 289.6V324.116C460.215 326.992 457.915 329.87 454.462 329.87H201.339C198.464 329.87 195.587 327.569 195.587 324.116V289.6C195.587 286.724 197.888 283.846 201.339 283.846H454.462ZM454.462 364.385C457.339 364.385 460.215 366.686 460.215 370.139V404.655C460.215 407.531 457.915 410.409 454.462 410.409H201.339C198.464 410.409 195.587 408.106 195.587 404.655V370.139C195.587 367.261 197.888 364.385 201.339 364.385H454.462ZM454.462 117.016H355.514C349.187 117.016 344.008 122.193 344.008 128.521V163.038C344.008 169.366 349.187 174.544 355.514 174.544H454.462C460.791 174.544 465.967 169.366 465.967 163.038V128.521C465.967 122.193 460.791 117.016 454.462 117.016ZM454.462 197.555H355.514C349.187 197.555 344.008 202.731 344.008 209.061V243.576C344.008 249.905 349.187 255.082 355.514 255.082H454.462C460.791 255.082 465.967 249.905 465.967 243.576V209.061C465.967 202.731 460.791 197.555 454.462 197.555ZM454.462 278.094H201.339C195.012 278.094 189.834 283.271 189.834 289.6V324.116C189.834 330.445 195.012 335.622 201.339 335.622H454.462C460.791 335.622 465.967 330.445 465.967 324.116V289.6C465.967 283.271 460.791 278.094 454.462 278.094ZM454.462 358.633H201.339C195.012 358.633 189.834 363.81 189.834 370.139V404.655C189.834 410.984 195.012 416.161 201.339 416.161H454.462C460.791 416.161 465.967 410.984 465.967 404.655V370.139C465.967 363.81 460.791 358.633 454.462 358.633Z" fill="url(#paint4_linear_129_4990)"/>
<path d="M100.682 105.518V88.2598C89.1767 88.2598 78.8216 93.4373 71.9183 102.066C65.0149 94.0125 54.66 88.2598 43.1543 88.2598V105.518C54.0846 105.518 63.2891 114.723 63.2891 125.653V246.461C63.2891 257.392 54.0846 266.597 43.1543 266.597V283.855C54.66 283.855 65.0149 278.678 71.9183 270.048C78.8216 278.103 89.1767 283.855 100.682 283.855V266.597C89.7519 266.597 80.5474 257.392 80.5474 246.461V125.653C80.5474 114.723 89.7519 105.518 100.682 105.518Z" fill="url(#paint5_linear_129_4990)"/>
<defs>
<linearGradient id="paint0_linear_129_4990" x1="327.911" y1="479.459" x2="327.911" y2="48" gradientUnits="userSpaceOnUse">
<stop stop-color="#7E4FC5"/>
<stop offset="1" stop-color="#BEA1E3"/>
</linearGradient>
<linearGradient id="paint1_linear_129_4990" x1="184.092" y1="68.1348" x2="316.406" y2="246.47" gradientUnits="userSpaceOnUse">
<stop stop-color="#7930D5" stop-opacity="0"/>
<stop offset="1" stop-color="#BEA1E3"/>
</linearGradient>
<linearGradient id="paint2_linear_129_4990" x1="0" y1="186.049" x2="316.404" y2="186.049" gradientUnits="userSpaceOnUse">
<stop stop-color="#48A5FA"/>
<stop offset="1" stop-color="#AE43F0"/>
</linearGradient>
<linearGradient id="paint3_linear_129_4990" x1="327.899" y1="410.408" x2="327.899" y2="122.768" gradientUnits="userSpaceOnUse">
<stop stop-color="#C1D6FF"/>
<stop offset="1" stop-color="#F2F9FF"/>
</linearGradient>
<linearGradient id="paint4_linear_129_4990" x1="327.901" y1="416.039" x2="327.901" y2="96.881" gradientUnits="userSpaceOnUse">
<stop stop-color="#096BFE" stop-opacity="0.4"/>
<stop offset="1" stop-color="#D0EBFF"/>
</linearGradient>
<linearGradient id="paint5_linear_129_4990" x1="71.9183" y1="283.855" x2="71.9183" y2="88.2598" gradientUnits="userSpaceOnUse">
<stop stop-color="#3673E5"/>
<stop offset="1" stop-color="#174EB5"/>
</linearGradient>
</defs>
</svg>
