<svg width="64" height="64" viewBox="0 0 64 64" fill="none" xmlns="http://www.w3.org/2000/svg">
<path d="M58.1752 59.9323H23.8022C20.5663 59.9323 17.9775 57.3437 17.9775 54.1077V11.8247C17.9775 8.58876 20.5663 6 23.8022 6H58.1752C61.4111 6 63.9998 8.58876 63.9998 11.8247V54.1077C63.9279 57.2718 61.3392 59.9323 58.1752 59.9323Z" fill="url(#paint0_linear_129_4954)"/>
<path d="M23.7303 6H39.5504V35.483H17.9775V11.7528C17.9775 8.58875 20.5663 6 23.7303 6Z" fill="url(#paint1_linear_129_4954)"/>
<path d="M38.8314 31.8853H0.719099C0.28764 31.8853 0 31.5258 0 31.1663V15.3461C0 14.9146 0.35955 14.627 0.719099 14.627H38.8314C39.2628 14.627 39.5504 14.9865 39.5504 15.3461V31.1663C39.5504 31.5258 39.1909 31.8853 38.8314 31.8853Z" fill="url(#paint2_linear_129_4954)"/>
<path d="M2.15723 16.7891H37.3932V29.7328H2.15723V16.7891Z" fill="white"/>
<path d="M56.8078 21.0985H44.4393C44.0796 21.0985 43.7201 20.8109 43.7201 20.3794V16.0648C43.7201 15.7053 44.0077 15.3457 44.4393 15.3457H56.8078C57.1673 15.3457 57.5268 15.6334 57.5268 16.0648V20.3794C57.5268 20.8109 57.2392 21.0985 56.8078 21.0985ZM57.5268 30.4469V26.1321C57.5268 25.7726 57.2392 25.4131 56.8078 25.4131H44.4393C44.0796 25.4131 43.7201 25.7007 43.7201 26.1321V30.4469C43.7201 30.8064 44.0077 31.1659 44.4393 31.1659H56.8078C57.2392 31.1659 57.5268 30.8783 57.5268 30.4469ZM57.5268 40.5143V36.1996C57.5268 35.8401 57.2392 35.4806 56.8078 35.4806H25.1673C24.8078 35.4806 24.4482 35.7682 24.4482 36.1996V40.5143C24.4482 40.8738 24.7359 41.2333 25.1673 41.2333H56.8078C57.2392 41.2333 57.5268 40.9457 57.5268 40.5143ZM57.5268 50.5815V46.267C57.5268 45.9075 57.2392 45.5477 56.8078 45.5477H25.1673C24.8078 45.5477 24.4482 45.8356 24.4482 46.267V50.5815C24.4482 50.9412 24.7359 51.3007 25.1673 51.3007H56.8078C57.2392 51.3007 57.5268 51.0131 57.5268 50.5815Z" fill="url(#paint3_linear_129_4954)"/>
<path d="M56.8079 15.3461C57.1677 15.3461 57.5272 15.6337 57.5272 16.0652V20.3798C57.5272 20.7393 57.2396 21.0989 56.8079 21.0989H44.4395C44.08 21.0989 43.7205 20.8112 43.7205 20.3798V16.0652C43.7205 15.7056 44.0081 15.3461 44.4395 15.3461H56.8079ZM56.8079 25.4136C57.1677 25.4136 57.5272 25.7012 57.5272 26.1326V30.447C57.5272 30.8068 57.2396 31.1663 56.8079 31.1663H44.4395C44.08 31.1663 43.7205 30.8787 43.7205 30.447V26.1326C43.7205 25.7731 44.0081 25.4136 44.4395 25.4136H56.8079ZM56.8079 35.4807C57.1677 35.4807 57.5272 35.7686 57.5272 36.2V40.5145C57.5272 40.874 57.2396 41.2337 56.8079 41.2337H25.1677C24.8082 41.2337 24.4486 40.9461 24.4486 40.5145V36.2C24.4486 35.8405 24.7363 35.4807 25.1677 35.4807H56.8079ZM56.8079 45.5482C57.1677 45.5482 57.5272 45.8358 57.5272 46.2674V50.5819C57.5272 50.9414 57.2396 51.3011 56.8079 51.3011H25.1677C24.8082 51.3011 24.4486 51.0133 24.4486 50.5819V46.2674C24.4486 45.9077 24.7363 45.5482 25.1677 45.5482H56.8079ZM56.8079 14.627H44.4395C43.6486 14.627 43.0012 15.2741 43.0012 16.0652V20.3798C43.0012 21.1708 43.6486 21.8179 44.4395 21.8179H56.8079C57.5991 21.8179 58.2462 21.1708 58.2462 20.3798V16.0652C58.2462 15.2741 57.5991 14.627 56.8079 14.627ZM56.8079 24.6943H44.4395C43.6486 24.6943 43.0012 25.3414 43.0012 26.1326V30.447C43.0012 31.2382 43.6486 31.8853 44.4395 31.8853H56.8079C57.5991 31.8853 58.2462 31.2382 58.2462 30.447V26.1326C58.2462 25.3414 57.5991 24.6943 56.8079 24.6943ZM56.8079 34.7617H25.1677C24.3767 34.7617 23.7295 35.4088 23.7295 36.2V40.5145C23.7295 41.3056 24.3767 41.9527 25.1677 41.9527H56.8079C57.5991 41.9527 58.2462 41.3056 58.2462 40.5145V36.2C58.2462 35.4088 57.5991 34.7617 56.8079 34.7617ZM56.8079 44.8292H25.1677C24.3767 44.8292 23.7295 45.4763 23.7295 46.2674V50.5819C23.7295 51.373 24.3767 52.0201 25.1677 52.0201H56.8079C57.5991 52.0201 58.2462 51.373 58.2462 50.5819V46.2674C58.2462 45.4763 57.5991 44.8292 56.8079 44.8292Z" fill="url(#paint4_linear_129_4954)"/>
<path d="M12.5855 13.1905V11.0332C11.1473 11.0332 9.85295 11.6804 8.99003 12.759C8.12711 11.7523 6.83274 11.0332 5.39453 11.0332V13.1905C6.76082 13.1905 7.91139 14.3411 7.91139 15.7073V30.8084C7.91139 32.1747 6.76082 33.3253 5.39453 33.3253V35.4826C6.83274 35.4826 8.12711 34.8355 8.99003 33.7567C9.85295 34.7636 11.1473 35.4826 12.5855 35.4826V33.3253C11.2192 33.3253 10.0687 32.1747 10.0687 30.8084V15.7073C10.0687 14.3411 11.2192 13.1905 12.5855 13.1905Z" fill="url(#paint5_linear_129_4954)"/>
<defs>
<linearGradient id="paint0_linear_129_4954" x1="40.9887" y1="59.9323" x2="40.9887" y2="6" gradientUnits="userSpaceOnUse">
<stop stop-color="#7E4FC5"/>
<stop offset="1" stop-color="#BEA1E3"/>
</linearGradient>
<linearGradient id="paint1_linear_129_4954" x1="23.0112" y1="8.51685" x2="39.5504" y2="30.8088" gradientUnits="userSpaceOnUse">
<stop stop-color="#7930D5" stop-opacity="0"/>
<stop offset="1" stop-color="#BEA1E3"/>
</linearGradient>
<linearGradient id="paint2_linear_129_4954" x1="0" y1="23.2561" x2="39.5504" y2="23.2561" gradientUnits="userSpaceOnUse">
<stop stop-color="#48A5FA"/>
<stop offset="1" stop-color="#AE43F0"/>
</linearGradient>
<linearGradient id="paint3_linear_129_4954" x1="40.9876" y1="51.3007" x2="40.9876" y2="15.3457" gradientUnits="userSpaceOnUse">
<stop stop-color="#C1D6FF"/>
<stop offset="1" stop-color="#F2F9FF"/>
</linearGradient>
<linearGradient id="paint4_linear_129_4954" x1="40.9878" y1="52.0049" x2="40.9878" y2="12.1101" gradientUnits="userSpaceOnUse">
<stop stop-color="#096BFE" stop-opacity="0.4"/>
<stop offset="1" stop-color="#D0EBFF"/>
</linearGradient>
<linearGradient id="paint5_linear_129_4954" x1="8.99003" y1="35.4826" x2="8.99003" y2="11.0332" gradientUnits="userSpaceOnUse">
<stop stop-color="#3673E5"/>
<stop offset="1" stop-color="#174EB5"/>
</linearGradient>
</defs>
</svg>
